<?xml version="1.0" standalone="no"?>
<!DOCTYPE svg PUBLIC "-//W3C//DTD SVG 20010904//EN"
 "http://www.w3.org/TR/2001/REC-SVG-20010904/DTD/svg10.dtd">
<svg version="1.0" xmlns="http://www.w3.org/2000/svg"
 width="720.000000pt" height="720.000000pt" viewBox="0 0 720.000000 720.000000"
 preserveAspectRatio="xMidYMid meet">
<metadata>
Created by potrace 1.14, written by Peter Selinger 2001-2017
</metadata>
<g transform="translate(0.000000,720.000000) scale(0.100000,-0.100000)"
fill="#000000" stroke="none">
<path d="M2255 5939 c-4 -6 -5 -12 -2 -15 2 -3 7 2 10 11 7 17 1 20 -8 4z"/>
<path d="M2495 5939 c-4 -6 -5 -12 -2 -15 2 -3 7 2 10 11 7 17 1 20 -8 4z"/>
<path d="M3933 5930 c-7 -25 -20 -26 -26 -2 -4 16 -5 16 -6 0 0 -10 -6 -18
-12 -18 -5 0 -7 5 -3 12 5 7 3 8 -7 2 -21 -13 -70 -13 -62 0 4 6 0 5 -9 -2
-13 -10 -17 -10 -20 0 -4 10 -8 10 -21 -1 -11 -9 -17 -10 -17 -2 0 6 -5 11
-11 11 -5 0 -7 -4 -4 -10 4 -6 -5 -9 -19 -8 -15 1 -26 7 -26 13 0 5 -5 3 -10
-5 -6 -10 -10 -11 -10 -2 0 6 -5 12 -11 12 -5 0 -7 -5 -4 -10 8 -13 -17 -9
-27 4 -4 6 -13 4 -22 -3 -13 -11 -16 -11 -16 0 0 12 -2 12 -9 1 -9 -15 -42
-13 -53 3 -5 6 -8 4 -8 -5 0 -13 -2 -13 -9 -1 -8 12 -12 12 -25 2 -13 -11 -16
-11 -16 0 0 11 -2 11 -10 -1 -9 -13 -10 -13 -10 0 0 13 -1 13 -10 0 -9 -13
-10 -13 -10 0 0 12 -2 12 -9 2 -9 -15 -42 -13 -53 3 -5 6 -8 4 -8 -5 0 -13 -2
-13 -9 -1 -8 12 -12 12 -25 2 -13 -11 -16 -11 -16 0 0 11 -2 11 -10 -1 -9 -13
-10 -13 -10 0 0 13 -1 13 -10 0 -9 -13 -10 -13 -10 0 0 12 -2 12 -9 2 -9 -15
-42 -13 -53 3 -5 6 -8 4 -8 -5 0 -13 -2 -13 -9 -1 -8 12 -12 12 -25 2 -13 -11
-16 -11 -16 0 0 11 -2 11 -10 -1 -9 -13 -10 -13 -10 0 0 13 -1 13 -10 0 -9
-13 -10 -13 -10 0 0 12 -2 12 -9 2 -9 -15 -42 -13 -53 3 -5 6 -8 4 -8 -5 0
-13 -2 -13 -9 -1 -8 12 -12 12 -25 2 -13 -11 -16 -11 -16 0 0 11 -2 11 -10 -1
-9 -13 -10 -13 -10 0 0 13 -1 13 -10 0 -9 -13 -10 -13 -10 0 0 12 -2 12 -9 2
-9 -15 -42 -13 -53 3 -5 6 -8 4 -8 -5 0 -13 -2 -13 -9 -1 -8 12 -12 12 -25 2
-13 -11 -16 -11 -16 0 0 11 -2 11 -10 -1 -9 -13 -10 -13 -10 0 0 13 -1 13 -10
0 -9 -13 -10 -13 -10 0 0 12 -2 12 -9 2 -9 -15 -42 -13 -53 3 -5 6 -8 4 -8 -5
0 -13 -2 -13 -9 -1 -8 12 -12 12 -25 2 -13 -11 -16 -11 -16 0 0 11 -2 11 -10
-1 -9 -13 -10 -13 -10 0 0 13 -1 13 -10 0 -9 -13 -10 -13 -10 0 0 12 -2 12 -9
2 -10 -17 -41 -12 -59 8 -12 13 -13 13 -8 -2 6 -20 -10 -25 -17 -5 -4 10 -6
10 -6 0 -1 -7 -6 -13 -12 -13 -5 0 -7 6 -3 13 5 7 1 6 -10 -3 -16 -13 -20 -12
-33 5 -13 17 -15 17 -10 3 7 -20 -9 -25 -16 -5 -4 10 -6 10 -6 0 -1 -7 -6 -13
-12 -13 -5 0 -7 5 -3 12 4 6 3 8 -4 4 -5 -3 -12 -3 -15 1 -2 5 -2 2 -1 -4 2
-7 -1 -13 -5 -13 -5 0 -12 6 -14 13 -4 10 -6 10 -6 0 -1 -7 -6 -13 -12 -13 -5
0 -7 5 -4 10 3 6 2 10 -4 10 -5 0 -12 -6 -15 -12 -3 -9 -10 -7 -22 7 -14 17
-16 17 -11 3 7 -20 -9 -25 -16 -5 -4 10 -6 10 -6 0 -1 -7 -6 -13 -12 -13 -5 0
-7 6 -3 13 5 7 1 6 -10 -3 -16 -13 -20 -12 -33 5 -13 17 -15 17 -10 3 7 -20
-9 -25 -16 -5 -4 10 -6 10 -6 0 -1 -7 -6 -13 -12 -13 -5 0 -7 5 -3 12 4 6 3 8
-4 4 -5 -3 -12 -3 -15 1 -2 5 -2 2 -1 -4 2 -7 -1 -13 -5 -13 -5 0 -12 6 -14
13 -4 10 -6 10 -6 0 -1 -7 -6 -13 -12 -13 -5 0 -7 5 -4 10 3 6 2 10 -4 10 -5
0 -12 -6 -15 -12 -3 -9 -10 -7 -22 7 -14 17 -16 17 -11 3 4 -10 2 -18 -3 -18
-6 0 -10 6 -10 13 0 9 -3 8 -9 -2 -7 -11 -9 -11 -14 0 -4 10 -6 10 -6 2 -1 -7
-6 -13 -12 -13 -5 0 -7 5 -4 11 11 17 -38 -14 -54 -35 -11 -14 -15 -15 -22 -5
-6 10 -9 7 -9 -10 0 -18 -4 -22 -17 -17 -10 4 -14 4 -11 0 11 -10 -11 -44 -28
-44 -8 0 -12 -4 -9 -10 3 -5 -1 -10 -10 -10 -9 0 -13 -4 -10 -10 3 -5 -1 -10
-10 -10 -10 0 -13 5 -9 12 4 6 3 8 -4 5 -5 -4 -8 -16 -5 -27 3 -12 0 -20 -6
-20 -7 0 -9 5 -6 10 3 6 4 10 1 10 -3 0 -10 -10 -17 -21 -9 -17 -8 -20 3 -14
7 3 4 0 -6 -9 -10 -8 -22 -13 -27 -11 -4 3 -11 0 -15 -6 -4 -8 -3 -9 4 -5 7 4
12 4 12 -1 -1 -13 -49 -45 -59 -39 -5 4 -7 -3 -4 -14 4 -16 2 -19 -11 -14 -10
4 -16 1 -16 -8 0 -8 -11 -25 -25 -38 -21 -20 -27 -21 -42 -9 -17 13 -17 13 0
-7 16 -19 16 -22 2 -28 -11 -4 -14 -2 -9 6 4 7 3 8 -4 4 -6 -4 -9 -13 -6 -20
3 -8 -4 -16 -16 -19 -12 -3 -19 -10 -15 -16 3 -6 2 -11 -4 -11 -5 0 -12 6 -14
13 -3 6 -6 2 -6 -10 -1 -28 -33 -47 -51 -30 -12 10 -12 9 -1 -6 12 -15 10 -21
-14 -43 -19 -18 -30 -22 -35 -14 -5 8 -9 7 -13 -5 -4 -9 -3 -13 3 -10 6 3 10
2 10 -4 0 -17 -20 -23 -35 -11 -10 8 -15 8 -21 -1 -4 -7 -3 -9 4 -5 6 3 13 2
17 -4 3 -5 1 -10 -5 -10 -6 0 -9 -4 -6 -9 6 -10 -71 -81 -86 -81 -5 0 -6 -5
-2 -12 5 -8 1 -9 -12 -4 -15 6 -17 5 -7 -5 7 -7 13 -17 13 -22 0 -4 -6 -5 -13
-1 -8 5 -8 2 2 -9 11 -14 11 -20 0 -34 -10 -11 -10 -14 -1 -9 6 4 12 3 12 -3
0 -5 -8 -12 -18 -14 -16 -4 -16 -5 1 -6 20 -1 23 -21 3 -21 -8 0 -17 -4 -20
-9 -4 -5 3 -7 14 -4 12 3 20 0 20 -6 0 -7 -4 -10 -8 -7 -5 3 -9 -1 -9 -9 0 -8
4 -12 9 -9 4 3 8 1 8 -5 0 -5 -8 -12 -18 -14 -16 -4 -16 -5 1 -6 9 0 17 -6 17
-12 0 -5 -6 -7 -12 -3 -9 5 -9 2 1 -9 11 -14 11 -20 0 -34 -10 -11 -10 -14 -1
-9 6 4 12 3 12 -3 0 -5 -8 -12 -18 -14 -16 -4 -16 -5 1 -6 9 0 17 -6 17 -12 0
-5 -4 -8 -8 -5 -5 3 -9 -1 -9 -9 0 -8 4 -12 9 -9 4 3 8 1 8 -5 0 -5 -8 -12
-18 -14 -16 -4 -16 -5 1 -6 20 -1 23 -21 3 -21 -8 0 -17 -4 -20 -9 -4 -5 3 -7
14 -4 12 3 20 0 20 -6 0 -7 -4 -10 -8 -7 -5 3 -9 -1 -9 -9 0 -8 4 -12 9 -9 4
3 8 1 8 -5 0 -5 -8 -12 -18 -14 -16 -4 -16 -5 1 -6 9 0 17 -6 17 -12 0 -5 -6
-7 -13 -3 -8 5 -8 2 2 -9 11 -14 11 -20 0 -34 -10 -11 -10 -14 -1 -9 6 4 12 3
12 -3 0 -5 -8 -12 -18 -14 -16 -4 -16 -5 1 -6 9 0 17 -6 17 -12 0 -5 -4 -8 -8
-5 -5 3 -9 -1 -9 -9 0 -8 4 -12 9 -9 4 3 8 1 8 -5 0 -5 -8 -12 -17 -14 -17 -4
-17 -5 0 -6 20 -1 23 -21 3 -21 -8 0 -17 -4 -20 -9 -4 -5 3 -7 14 -4 12 3 20
0 20 -6 0 -7 -4 -10 -8 -7 -5 3 -9 -1 -9 -9 0 -8 4 -12 9 -9 4 3 8 1 8 -5 0
-5 -8 -12 -18 -14 -16 -4 -16 -5 1 -6 9 0 17 -6 17 -12 0 -5 -6 -7 -12 -3 -9
5 -9 2 1 -9 11 -14 11 -20 0 -34 -10 -11 -10 -14 -2 -9 7 4 13 3 13 -3 0 -5
-8 -12 -18 -14 -16 -4 -16 -5 1 -6 9 0 17 -6 17 -12 0 -5 -4 -8 -8 -5 -5 3 -9
-1 -9 -9 0 -8 4 -12 9 -9 4 3 8 1 8 -5 0 -5 -8 -12 -18 -14 -16 -4 -16 -5 1
-6 20 -1 23 -21 3 -21 -8 0 -17 -4 -20 -9 -4 -5 3 -7 14 -4 12 3 20 0 20 -6 0
-7 -4 -10 -8 -7 -5 3 -9 -1 -9 -9 0 -8 4 -12 9 -9 4 3 8 1 8 -5 0 -5 -8 -12
-17 -14 -17 -4 -17 -5 0 -6 9 0 17 -6 17 -12 0 -5 -6 -7 -12 -3 -9 5 -9 2 1
-9 11 -14 11 -20 0 -34 -10 -11 -10 -14 -2 -9 7 4 13 3 13 -3 0 -5 -8 -12 -17
-14 -17 -4 -17 -5 0 -6 9 0 17 -6 17 -12 0 -5 -4 -8 -8 -5 -5 3 -9 -1 -9 -9 0
-8 4 -12 9 -9 4 3 8 1 8 -5 0 -5 -8 -12 -17 -14 -17 -4 -17 -5 0 -6 20 -1 23
-21 3 -21 -8 0 -17 -4 -20 -9 -4 -5 3 -7 14 -4 12 3 20 0 20 -6 0 -7 -4 -10
-8 -7 -5 3 -9 -1 -9 -9 0 -8 4 -12 9 -9 4 3 8 1 8 -5 0 -5 -8 -12 -17 -14 -17
-4 -17 -5 0 -6 9 0 17 -6 17 -12 0 -5 -6 -7 -12 -3 -9 5 -9 2 1 -9 11 -14 11
-20 0 -34 -10 -11 -10 -14 -1 -9 6 4 12 3 12 -3 0 -5 -8 -12 -17 -14 -17 -4
-17 -5 0 -6 9 0 17 -6 17 -12 0 -5 -4 -8 -8 -5 -5 3 -9 -1 -9 -9 0 -8 4 -12 9
-9 4 3 8 1 8 -5 0 -5 -8 -12 -17 -14 -15 -4 -15 -5 -2 -6 13 -1 16 -13 15 -68
-1 -38 -5 -74 -10 -82 -6 -10 -6 -12 2 -7 7 4 12 3 12 -3 0 -5 -8 -12 -17 -14
-17 -4 -17 -5 0 -6 9 0 17 -6 17 -12 0 -5 -4 -8 -8 -5 -5 3 -9 -1 -9 -9 0 -8
4 -12 9 -9 4 3 8 1 8 -5 0 -5 -8 -12 -17 -14 -17 -4 -17 -5 0 -6 20 -1 23 -21
3 -21 -8 0 -17 -4 -20 -9 -4 -5 3 -7 14 -4 12 3 20 0 20 -6 0 -7 -4 -10 -8 -7
-5 3 -9 -1 -9 -9 0 -8 4 -12 9 -9 4 3 8 1 8 -5 0 -5 -8 -12 -17 -14 -17 -4
-17 -5 0 -6 9 0 17 -6 17 -12 0 -5 -6 -7 -12 -3 -9 5 -9 2 1 -9 11 -14 11 -20
0 -34 -10 -11 -10 -14 -1 -9 6 4 12 3 12 -3 0 -5 -8 -12 -17 -14 -17 -4 -17
-5 0 -6 9 0 17 -6 17 -12 0 -5 -4 -8 -8 -5 -5 3 -9 -1 -9 -9 0 -8 4 -12 9 -9
4 3 8 1 8 -5 0 -5 -8 -12 -17 -14 -17 -4 -17 -5 0 -6 20 -1 22 -12 5 -30 -10
-11 -10 -13 -1 -7 7 4 13 3 13 -3 0 -5 -8 -12 -17 -14 -17 -4 -17 -5 0 -6 20
-1 22 -12 5 -29 -7 -7 -8 -12 -2 -12 5 0 11 -11 12 -25 1 -14 -4 -25 -11 -25
-8 0 -7 -4 3 -10 13 -9 13 -10 0 -10 -13 0 -13 -1 0 -10 13 -9 13 -10 0 -10
-9 0 -11 -3 -5 -8 13 -9 18 -35 5 -27 -5 3 -10 1 -10 -4 0 -6 6 -11 13 -11 8
0 7 -4 -3 -10 -8 -5 -10 -10 -5 -10 15 0 17 -50 2 -50 -8 0 -7 -4 3 -10 13 -9
13 -10 0 -10 -13 0 -13 -1 0 -10 13 -9 13 -10 0 -10 -9 0 -11 -3 -5 -8 13 -9
18 -35 5 -27 -5 3 -10 1 -10 -4 0 -6 6 -11 13 -11 8 0 7 -4 -3 -10 -8 -5 -10
-10 -5 -10 15 0 17 -50 2 -50 -8 0 -7 -4 3 -10 13 -9 13 -10 0 -10 -13 0 -13
-1 0 -10 13 -9 13 -10 0 -10 -9 0 -11 -3 -5 -8 13 -9 18 -35 5 -27 -5 3 -10 1
-10 -4 0 -6 6 -11 13 -11 8 0 7 -4 -3 -10 -8 -5 -10 -10 -5 -10 15 0 17 -50 2
-50 -8 0 -7 -4 3 -10 13 -9 13 -10 0 -10 -13 0 -13 -1 0 -10 13 -9 13 -10 0
-10 -9 0 -11 -3 -5 -8 13 -9 18 -35 5 -27 -5 3 -10 1 -10 -4 0 -6 6 -11 13
-11 8 0 7 -4 -3 -10 -8 -5 -10 -10 -5 -10 15 0 17 -50 2 -50 -8 0 -7 -4 3 -10
13 -9 13 -10 0 -10 -13 0 -13 -1 0 -10 13 -9 13 -10 0 -10 -9 0 -11 -3 -5 -8
13 -9 18 -35 5 -27 -5 3 -10 1 -10 -4 0 -6 6 -11 13 -11 8 0 7 -4 -3 -10 -8
-5 -10 -10 -5 -10 15 0 17 -50 2 -50 -8 0 -7 -4 3 -10 13 -9 13 -10 0 -10 -13
0 -13 -1 0 -10 13 -9 13 -10 0 -10 -9 0 -11 -3 -5 -8 13 -9 18 -35 5 -27 -5 3
-10 1 -10 -4 0 -6 6 -11 13 -11 8 0 7 -4 -3 -10 -8 -5 -10 -10 -5 -10 15 0 17
-50 2 -50 -8 0 -7 -4 3 -10 13 -9 13 -10 0 -10 -13 0 -13 -1 0 -10 13 -9 13
-10 0 -10 -9 0 -11 -3 -5 -8 13 -9 18 -35 5 -27 -5 3 -10 1 -10 -4 0 -6 6 -11
13 -11 8 0 7 -4 -3 -10 -8 -5 -10 -10 -5 -10 15 0 17 -50 2 -50 -8 0 -7 -4 3
-10 13 -9 13 -10 0 -10 -13 0 -13 -1 0 -10 13 -9 13 -10 0 -10 -9 0 -11 -3 -5
-8 13 -9 18 -35 5 -27 -5 3 -10 1 -10 -4 0 -6 5 -11 10 -11 6 0 10 -7 10 -15
0 -8 -6 -15 -12 -15 -9 0 -8 -4 2 -10 13 -9 12 -13 -5 -27 -16 -13 -17 -15 -3
-10 25 9 22 -7 -4 -27 l-23 -17 23 11 c15 7 22 7 22 0 0 -5 -6 -10 -12 -10 -9
0 -10 -3 -2 -8 14 -9 14 -45 0 -54 -8 -5 -7 -8 2 -8 6 0 12 -5 12 -11 0 -5 -5
-7 -10 -4 -6 3 -10 1 -10 -4 0 -6 4 -11 9 -11 5 0 9 -11 9 -25 0 -14 -6 -25
-12 -25 -6 0 -4 -5 4 -10 13 -9 12 -13 -5 -27 -16 -13 -17 -15 -2 -10 24 9 21
-7 -5 -27 l-23 -17 23 11 c15 7 22 7 22 0 0 -5 -6 -10 -12 -10 -9 0 -10 -3 -2
-8 14 -9 14 -45 0 -54 -8 -5 -7 -8 2 -8 6 0 12 -5 12 -11 0 -5 -4 -7 -10 -4
-5 3 -10 1 -10 -4 0 -6 4 -11 9 -11 5 0 9 -11 9 -25 0 -14 -6 -25 -12 -25 -7
0 -8 -3 0 -8 14 -10 15 -84 0 -75 -8 5 -8 3 0 -8 15 -20 16 -61 1 -53 -7 4 -9
4 -5 -1 4 -4 2 -15 -5 -24 -11 -14 -10 -14 6 -2 20 15 23 2 5 -18 -8 -8 -8
-11 -2 -8 7 4 11 -3 11 -18 0 -14 -4 -22 -9 -19 -5 3 -4 -3 3 -14 10 -16 10
-24 1 -34 -9 -12 -5 -14 23 -12 22 2 35 -1 35 -9 0 -8 3 -9 8 -1 4 6 16 11 27
11 23 0 47 -21 37 -32 -4 -5 -1 -5 6 -1 10 6 10 11 2 21 -9 10 -7 13 4 11 9
-1 22 -10 29 -21 11 -14 16 -15 22 -5 5 8 4 11 -2 7 -6 -4 -13 -1 -16 7 -4 9
2 14 19 14 13 0 21 -4 18 -9 -3 -5 0 -9 5 -9 6 0 11 5 11 11 0 6 6 9 13 6 6
-2 11 -10 9 -16 -1 -7 2 -10 8 -6 6 3 8 10 6 14 -8 12 78 8 86 -4 5 -7 8 -6 8
1 0 6 11 12 25 12 14 0 25 -6 25 -12 0 -7 3 -8 8 -1 8 13 124 16 116 4 -3 -5
0 -9 5 -9 6 0 11 5 11 11 0 6 6 9 13 6 6 -2 11 -10 9 -16 -1 -7 2 -10 8 -6 6
3 8 10 6 14 -8 12 68 9 76 -3 5 -8 8 -7 8 2 0 6 5 12 11 12 5 0 7 -4 4 -10 -3
-5 -1 -10 5 -10 6 0 8 -5 4 -12 -4 -7 -3 -8 4 -4 6 4 9 13 5 21 -8 23 13 18
29 -7 11 -17 16 -19 23 -8 5 8 4 11 -2 7 -6 -4 -13 -1 -16 7 -4 9 2 14 19 14
13 0 21 -4 18 -9 -3 -5 -1 -9 5 -9 5 0 12 6 14 13 4 9 8 8 16 -3 7 -9 11 -10
11 -3 0 14 42 13 52 -2 5 -7 8 -7 8 1 0 6 14 11 30 12 17 0 28 -4 25 -9 -4 -5
-1 -9 4 -9 6 0 11 4 11 9 0 6 18 9 40 9 47 0 45 -2 54 35 5 22 4 27 -6 21 -10
-6 -10 -5 -1 7 7 9 8 20 3 29 -5 8 -6 18 -3 24 4 5 10 1 15 -10 7 -15 7 -14 3
6 -3 14 -8 36 -11 50 -2 14 -7 31 -9 38 -3 7 0 10 5 7 6 -3 10 -14 11 -23 0
-10 3 -12 5 -5 3 7 0 22 -7 34 -9 18 -9 21 3 16 8 -3 15 1 15 8 0 7 -6 11 -12
8 -23 -8 -25 27 -3 49 16 16 17 20 5 15 -9 -3 -17 -2 -17 3 0 6 5 10 10 10 6
0 10 4 10 10 0 5 -8 7 -17 4 -12 -4 -10 1 7 15 14 12 18 19 9 16 -19 -7 -34
21 -17 31 6 4 8 3 4 -4 -7 -12 20 -10 31 3 4 4 3 5 -3 2 -6 -3 -18 3 -27 14
-9 10 -13 19 -9 19 5 0 17 7 28 16 18 14 18 15 -4 4 -22 -11 -23 -10 -17 10 4
13 3 20 -1 17 -5 -3 -9 8 -9 23 0 29 14 31 16 2 0 -10 3 -12 5 -5 3 7 0 22 -7
34 -9 18 -9 21 3 16 8 -3 15 1 15 8 0 7 -6 11 -14 8 -12 -5 -18 9 -13 32 7 32
6 56 -2 61 -4 3 -5 10 -2 16 4 7 9 6 14 -2 5 -8 9 -7 13 4 4 9 1 15 -5 13 -7
-1 -13 7 -15 18 -3 16 -2 17 6 5 7 -9 11 -10 11 -3 0 6 -7 18 -15 26 -8 8 -11
17 -8 20 11 12 11 92 -1 99 -8 6 -7 8 2 8 7 0 10 5 7 10 -3 6 -1 10 6 10 7 0
4 7 -7 16 -15 12 -15 15 -2 10 9 -2 19 1 22 9 3 9 0 12 -10 8 -10 -3 -14 2
-14 18 0 19 2 21 10 9 5 -8 10 -10 10 -5 0 6 -6 17 -12 24 -11 12 -9 13 7 7
18 -7 18 -6 -2 13 -22 21 -22 51 0 51 6 0 2 7 -9 16 -15 12 -15 15 -2 10 9 -2
19 1 22 9 3 9 0 12 -10 8 -10 -4 -14 2 -14 22 0 15 4 24 10 20 6 -3 10 -1 10
4 0 6 -4 11 -10 11 -5 0 -10 5 -10 11 0 5 6 7 13 4 6 -4 3 1 -7 9 -18 14 -15
21 7 17 4 -1 1 12 -8 28 -9 19 -11 32 -5 36 6 4 7 11 4 17 -10 16 -11 67 -1
61 4 -2 7 -12 8 -21 0 -10 3 -12 5 -5 3 7 0 22 -7 34 -9 18 -9 21 3 16 8 -3
15 1 15 8 0 7 -6 11 -14 8 -12 -5 -18 9 -13 32 7 32 6 56 -2 61 -4 3 -5 10 -2
16 4 7 9 6 14 -2 5 -8 9 -7 13 4 4 9 1 15 -5 13 -7 -1 -13 7 -15 18 -3 14 -1
16 5 7 6 -9 9 -2 9 20 0 18 -2 27 -5 20 -2 -6 -8 -12 -14 -12 -7 0 -7 4 0 13
6 7 8 24 5 37 -4 16 -3 21 5 16 7 -4 12 -3 12 3 0 5 -6 12 -12 14 -10 4 -9 8
2 16 13 9 12 11 -3 11 -10 0 -15 5 -12 10 4 6 11 8 17 4 5 -3 3 7 -6 24 -8 16
-12 32 -9 36 12 11 11 81 -1 88 -8 5 -7 8 2 8 7 0 10 5 7 10 -3 6 -1 10 6 10
7 0 4 7 -7 16 -15 12 -15 15 -2 10 9 -2 19 1 22 9 3 9 0 12 -10 8 -10 -3 -14
2 -14 18 0 19 2 21 10 9 5 -8 10 -10 10 -4 0 5 -6 16 -13 23 -10 12 -8 13 8 7
18 -7 18 -6 -2 13 -22 21 -22 51 1 51 6 0 3 5 -7 11 -9 6 -15 15 -11 21 4 7 9
6 14 -2 5 -8 9 -7 13 4 4 9 1 15 -6 13 -7 -1 -12 7 -12 18 0 11 -4 26 -9 34
-6 9 -5 12 2 7 14 -8 12 34 -2 53 -9 12 -7 13 7 8 19 -7 24 8 5 16 -10 4 -9 8
2 16 13 9 12 11 -3 11 -10 0 -15 5 -12 10 4 6 10 8 15 5 5 -3 12 -1 15 5 4 6
1 9 -6 8 -6 -2 -15 9 -20 25 -4 16 -4 25 2 21 5 -3 9 -13 10 -22 0 -10 3 -12
5 -5 3 7 0 22 -7 34 -9 18 -9 21 3 16 8 -3 15 1 15 8 0 7 -6 11 -12 8 -23 -8
-25 27 -3 49 16 16 17 20 5 15 -9 -3 -17 -2 -17 3 0 6 5 10 10 10 6 0 10 4 10
10 0 5 -8 7 -17 4 -12 -4 -10 1 7 15 14 12 18 19 9 16 -19 -7 -34 21 -17 31 7
4 8 3 4 -4 -4 -7 -2 -12 3 -12 16 0 13 16 -5 34 -8 9 -11 16 -7 16 5 0 18 7
29 16 18 15 18 15 -2 5 -20 -10 -22 -8 -21 29 0 24 5 37 11 34 6 -3 2 2 -8 10
-11 9 -17 17 -13 17 4 1 11 2 16 3 5 0 13 5 18 10 4 5 3 6 -3 3 -14 -8 -37 40
-23 48 5 4 7 11 3 16 -3 5 0 17 8 26 11 14 11 16 -1 8 -11 -6 -13 -4 -7 10 4
11 2 22 -6 27 -11 6 -10 8 0 8 7 0 10 5 7 10 -3 6 -1 10 6 10 7 0 4 7 -7 16
-15 12 -15 15 -2 10 9 -2 19 1 22 9 3 9 0 12 -10 8 -10 -3 -14 2 -14 18 0 19
2 21 10 9 5 -8 10 -10 10 -4 0 5 -6 16 -12 23 -11 12 -9 13 7 7 18 -7 18 -6
-2 13 -22 21 -22 51 0 51 6 0 2 7 -9 16 -15 12 -15 15 -2 10 9 -2 19 1 22 9 3
9 0 12 -10 8 -10 -4 -14 2 -14 22 0 15 4 24 10 20 6 -3 10 -1 10 4 0 6 -4 11
-10 11 -5 0 -10 5 -10 11 0 5 6 7 13 4 6 -4 3 1 -7 9 -18 14 -15 21 7 17 4 -1
1 12 -8 28 -9 19 -11 32 -5 36 6 4 7 11 4 17 -10 16 -11 67 -1 61 4 -2 7 -12
8 -21 0 -10 3 -12 5 -5 3 7 0 22 -7 34 -9 18 -9 21 3 16 8 -3 15 1 15 8 0 7
-6 11 -14 8 -19 -7 -16 7 5 24 16 13 15 13 -7 7 -18 -5 -22 -3 -15 7 11 19 12
49 2 55 -4 3 -5 10 -2 16 4 7 9 6 14 -2 5 -8 9 -7 13 4 4 9 1 15 -5 13 -7 -1
-13 7 -15 18 -3 16 -2 17 6 5 7 -9 11 -10 11 -3 0 6 -7 18 -15 26 -8 8 -12 17
-9 19 2 3 7 16 9 28 2 12 7 25 10 28 2 3 0 11 -6 19 -9 9 -8 13 0 13 6 0 11 5
11 11 0 5 -4 8 -9 4 -5 -3 -12 -1 -16 5 -3 5 -2 10 4 10 13 0 10 42 -4 53 -6
5 -3 7 7 3 11 -3 18 0 18 7 0 8 4 7 10 -3 7 -10 13 -11 18 -5 8 12 103 15 96
3 -3 -4 0 -8 6 -8 6 0 9 -4 6 -8 -2 -4 4 -8 15 -8 18 0 19 2 4 12 -12 9 -13
14 -4 20 7 4 15 2 17 -4 2 -7 9 -9 15 -5 18 11 57 11 57 1 0 -5 5 -6 11 -3 16
11 69 12 69 2 0 -4 5 -5 11 -2 16 11 69 12 69 2 0 -4 5 -5 11 -2 16 11 69 12
69 2 0 -4 5 -5 11 -1 15 9 79 13 74 4 -2 -4 8 -12 23 -19 24 -10 25 -10 9 3
-13 10 -15 16 -6 21 6 4 15 2 19 -5 6 -10 9 -9 13 1 5 14 11 -15 7 -36 -1 -5
2 -6 7 -2 4 5 8 16 8 25 0 11 9 17 22 18 12 1 20 -3 17 -7 -3 -5 0 -9 6 -9 6
0 9 -4 6 -8 -2 -4 4 -8 15 -8 18 0 19 2 4 12 -12 9 -13 14 -4 20 7 4 15 2 17
-4 2 -7 9 -9 15 -5 16 10 68 12 62 3 -2 -4 8 -12 23 -19 24 -10 25 -10 9 3
-11 8 -14 17 -8 20 13 8 52 -25 44 -37 -4 -6 -1 -7 6 -3 9 6 9 12 -3 25 -13
15 -12 16 19 17 19 0 32 -3 29 -8 -3 -4 0 -8 6 -8 6 0 9 -4 6 -8 -2 -4 4 -8
15 -8 18 0 19 2 4 12 -12 9 -13 14 -4 20 7 4 15 2 17 -4 2 -7 9 -9 15 -5 16
10 68 12 62 3 -2 -4 8 -12 23 -19 24 -10 25 -10 9 3 -13 10 -15 16 -6 21 6 4
15 2 19 -5 6 -10 9 -9 13 1 5 14 11 -15 7 -36 -1 -5 2 -6 7 -2 4 5 8 16 8 25
0 11 9 17 22 18 12 1 20 -3 17 -7 -3 -5 0 -9 6 -9 6 0 8 -5 4 -12 -4 -7 -3 -8
5 -4 6 4 9 11 6 16 -3 5 -1 11 5 15 5 3 10 1 10 -5 0 -6 5 -8 11 -5 16 11 69
12 69 2 0 -4 5 -5 11 -2 16 11 69 12 69 2 0 -4 5 -5 11 -2 16 11 69 12 69 2 0
-4 5 -5 11 -1 15 9 79 13 74 4 -2 -4 8 -12 23 -19 24 -10 25 -10 9 3 -14 11
-15 16 -6 22 8 4 15 2 17 -5 4 -11 6 -11 13 0 7 11 9 9 10 -6 1 -11 0 -24 -1
-30 -1 -5 2 -6 7 -2 4 5 8 16 8 25 0 11 9 17 22 18 12 1 20 -3 17 -7 -3 -5 0
-9 6 -9 6 0 9 -4 6 -8 -2 -4 4 -8 15 -8 18 0 19 2 4 12 -12 9 -13 14 -4 20 7
4 15 2 17 -4 2 -7 9 -9 15 -5 16 10 68 12 62 3 -2 -4 8 -12 23 -19 24 -10 25
-10 9 3 -13 10 -15 16 -6 21 6 4 14 4 18 -1 3 -5 15 -16 26 -24 19 -14 19 -14
3 5 -16 20 -16 20 17 21 19 0 32 -3 29 -8 -3 -4 0 -8 6 -8 6 0 9 -4 6 -8 -2
-4 4 -8 15 -8 18 0 19 2 4 12 -12 9 -13 14 -4 20 7 4 15 2 17 -4 2 -7 9 -9 15
-5 16 10 68 12 62 3 -2 -4 8 -12 23 -19 24 -10 25 -10 9 3 -13 10 -15 16 -6
21 6 4 15 2 19 -5 6 -10 9 -9 13 1 5 14 11 -15 7 -36 -1 -5 2 -6 7 -2 4 5 8
16 8 25 0 11 9 17 22 18 12 1 20 -3 17 -7 -3 -5 0 -9 6 -9 6 0 8 -5 4 -12 -4
-7 -3 -8 5 -4 6 4 9 11 6 16 -3 5 -1 11 5 15 5 3 10 1 10 -5 0 -6 5 -8 11 -5
16 11 69 12 69 2 0 -4 5 -5 11 -2 16 11 69 12 69 2 0 -4 5 -5 11 -2 16 11 69
12 69 2 0 -4 5 -5 11 -1 14 8 79 13 74 5 -2 -4 7 -11 19 -17 17 -8 23 -7 23 2
0 7 -4 11 -9 8 -4 -3 -8 -1 -8 5 0 5 9 9 20 8 12 -1 18 -7 16 -14 -3 -7 0 -15
6 -19 7 -4 8 -3 4 4 -6 11 0 14 20 11 4 0 11 5 16 13 7 9 8 8 4 -5 -3 -10 -2
-26 3 -36 6 -10 6 -23 1 -31 -5 -9 -5 -19 2 -27 13 -17 -4 -17 -22 0 -8 6 -6
2 4 -10 11 -13 16 -23 12 -23 -4 0 -2 -9 4 -20 8 -14 8 -20 0 -20 -7 0 -8 -6
0 -19 7 -14 7 -22 0 -26 -6 -4 -7 -11 -4 -17 5 -8 1 -9 -10 -5 -10 4 -15 3
-11 -3 3 -6 13 -10 21 -10 16 0 19 -16 4 -25 -8 -5 -7 -11 1 -21 7 -9 8 -14 1
-14 -7 0 -8 -10 -2 -30 5 -19 5 -30 -1 -30 -6 0 -6 -7 1 -19 7 -14 7 -22 0
-26 -6 -4 -8 -10 -5 -15 3 -5 -3 -14 -12 -20 -16 -10 -16 -10 2 -5 16 4 21 0
21 -15 0 -11 -4 -20 -8 -20 -5 0 -4 -9 2 -19 7 -14 7 -22 0 -26 -6 -4 -7 -11
-4 -17 5 -8 1 -9 -10 -5 -10 4 -15 3 -11 -3 3 -6 13 -10 21 -10 16 0 19 -16 4
-25 -8 -5 -7 -11 1 -21 7 -9 8 -14 1 -14 -7 0 -8 -10 -2 -30 5 -19 5 -30 -1
-30 -6 0 -6 -6 0 -18 10 -18 -1 -49 -23 -65 -6 -5 -2 -6 10 -2 17 4 22 1 20
-12 0 -10 -8 -24 -16 -31 -11 -10 -12 -12 -1 -6 10 5 13 3 8 -8 -3 -9 0 -21 6
-28 9 -10 9 -12 -4 -7 -9 3 -16 0 -16 -9 0 -7 3 -11 7 -9 3 2 6 -4 6 -13 0
-15 -11 -17 -66 -17 -36 0 -71 4 -79 9 -9 6 -12 5 -7 -2 7 -12 -32 -11 -53 3
-10 5 -12 4 -7 -3 4 -7 1 -12 -9 -12 -10 0 -13 5 -9 12 5 7 3 8 -5 4 -7 -5
-25 -10 -42 -13 -23 -3 -29 0 -30 14 0 14 -2 15 -7 3 -4 -8 -15 -16 -26 -18
-12 -2 -16 1 -10 9 5 8 3 10 -7 4 -21 -14 -123 -15 -131 -2 -4 7 -8 7 -8 2 0
-6 -25 -11 -56 -12 -51 -2 -55 -1 -38 13 12 10 6 8 -14 -3 -29 -16 -34 -16
-42 -3 -5 8 -10 10 -10 5 0 -6 -25 -11 -56 -12 -51 -2 -55 -1 -38 13 12 10 6
8 -14 -3 -29 -16 -34 -16 -42 -3 -5 8 -10 10 -10 5 0 -6 -25 -11 -56 -12 -51
-2 -55 -1 -38 13 12 10 6 8 -14 -3 -29 -16 -34 -16 -42 -3 -5 8 -10 10 -10 5
0 -14 -100 -16 -124 -3 -12 7 -16 7 -12 0 7 -12 -33 -10 -53 3 -10 5 -12 4 -7
-3 4 -7 1 -12 -9 -12 -10 0 -13 5 -9 12 5 7 3 8 -7 2 -21 -13 -102 -13 -118 0
-11 8 -13 8 -8 -1 5 -8 -3 -13 -25 -15 -29 -3 -36 -10 -62 -65 -17 -35 -37
-63 -44 -63 -8 0 -12 -6 -9 -14 3 -7 -2 -24 -11 -37 -9 -13 -17 -30 -19 -37
-1 -8 -9 -22 -17 -31 -9 -10 -13 -21 -9 -26 5 -4 -2 -5 -14 -2 -13 3 -26 0
-30 -5 -3 -6 -1 -8 5 -4 6 3 13 2 16 -3 7 -11 -43 -111 -56 -111 -5 0 -6 -4
-3 -10 3 -5 1 -10 -4 -10 -6 0 -10 -3 -10 -7 3 -21 -2 -26 -12 -13 -8 12 -9
11 -4 -6 6 -22 -36 -108 -65 -132 -8 -8 -9 -11 -3 -7 9 4 11 1 7 -9 -3 -9 -10
-13 -15 -10 -5 3 -9 0 -9 -7 0 -7 -8 -21 -17 -32 -13 -15 -14 -19 -3 -13 12 6
12 5 -1 -6 -9 -7 -14 -19 -11 -27 3 -8 0 -11 -7 -7 -7 5 -11 -1 -11 -14 0 -17
-4 -21 -17 -16 -10 4 -14 4 -10 0 4 -4 1 -14 -6 -23 -11 -14 -10 -14 6 -2 18
14 18 13 1 -22 -10 -21 -23 -36 -29 -33 -6 2 -11 -6 -11 -18 1 -13 -4 -20 -13
-18 -12 3 -12 0 -1 -12 10 -13 10 -16 -3 -16 -8 0 -17 6 -20 13 -3 6 -4 2 -4
-10 1 -12 5 -19 9 -17 4 3 8 1 8 -4 0 -11 -30 -26 -45 -23 -5 2 -7 -1 -3 -4 4
-4 3 -17 -3 -29 -8 -17 -6 -16 10 4 26 31 27 20 2 -21 -11 -19 -20 -26 -23
-18 -3 8 -7 4 -10 -9 -4 -12 -2 -20 3 -16 16 9 10 -8 -8 -25 -10 -9 -18 -23
-18 -31 0 -8 -8 -15 -17 -15 -9 0 -20 -4 -25 -8 -4 -5 -1 -7 7 -5 8 2 15 -4
15 -12 0 -8 -6 -14 -14 -12 -12 3 -12 0 -2 -12 7 -8 9 -21 5 -27 -5 -8 -3 -9
5 -4 14 8 131 -100 131 -122 0 -7 7 -13 16 -13 10 0 14 -6 11 -14 -4 -10 0
-12 16 -8 20 5 21 4 7 -13 -9 -12 -10 -16 -2 -11 8 5 43 -23 103 -83 50 -50
96 -91 102 -91 7 0 7 -4 -1 -12 -7 -7 -12 -17 -12 -23 0 -5 5 -3 10 5 8 12 10
12 10 1 0 -8 3 -11 7 -8 9 9 53 -33 53 -50 0 -7 7 -13 16 -13 10 0 14 -6 11
-14 -8 -20 4 -28 20 -15 9 9 13 8 13 0 0 -6 22 -32 50 -58 28 -26 50 -53 50
-60 0 -7 5 -13 12 -13 18 0 68 -51 68 -69 0 -14 1 -14 10 -1 8 12 10 10 11
-10 1 -14 1 -29 0 -33 -1 -5 3 -6 9 -2 6 3 8 12 4 18 -3 7 12 -7 35 -30 23
-23 41 -45 40 -50 -3 -20 2 -24 16 -13 10 8 15 9 15 1 0 -6 13 -24 30 -39 17
-16 30 -34 30 -41 0 -6 6 -11 13 -11 17 0 59 -44 50 -53 -3 -4 0 -7 8 -7 11 0
11 -2 -1 -10 -8 -5 -10 -10 -4 -10 5 0 15 5 22 12 8 8 12 8 12 1 0 -6 41 -52
91 -102 60 -60 88 -95 83 -103 -5 -8 -1 -7 11 2 17 14 18 13 13 -8 -4 -12 -2
-20 3 -16 5 3 28 -13 52 -36 23 -22 34 -38 25 -34 -10 3 -18 1 -18 -5 0 -6 3
-10 8 -10 4 1 18 1 32 0 20 -1 22 -3 10 -11 -13 -8 -13 -10 -1 -10 19 0 71
-50 71 -67 0 -7 5 -13 12 -13 14 0 68 -50 68 -62 0 -5 -5 -6 -12 -2 -7 4 -8 3
-4 -5 4 -6 11 -9 16 -6 12 7 80 -53 80 -71 0 -8 3 -13 8 -13 18 3 35 -2 29 -8
-4 -3 5 -15 20 -26 28 -18 28 -18 3 -12 -14 4 -22 4 -18 0 11 -11 59 -15 53
-4 -4 5 5 8 19 7 15 -1 26 -6 26 -10 0 -4 8 -8 18 -8 14 0 15 2 2 10 -11 7 -9
9 10 8 14 -1 31 -6 39 -12 11 -8 13 -8 7 2 -4 6 -3 12 3 12 5 0 12 -8 14 -17
4 -15 5 -15 6 -2 1 20 81 23 81 3 0 -18 17 -27 26 -13 4 8 3 9 -4 5 -7 -4 -12
-1 -12 7 0 9 10 15 26 15 18 0 22 -3 13 -9 -10 -6 -10 -9 -2 -9 6 0 15 5 18
10 11 17 27 11 21 -7 -6 -17 -5 -17 7 -1 16 21 77 20 94 -2 6 -8 15 -12 19 -7
4 4 2 7 -4 7 -7 0 -12 4 -12 8 0 5 7 9 15 9 8 0 15 -5 15 -11 0 -6 4 -5 9 2
10 17 22 14 38 -7 6 -9 15 -13 19 -8 4 4 2 7 -4 7 -7 0 -12 4 -12 9 0 15 64 7
77 -9 6 -8 15 -12 19 -7 4 4 2 7 -4 7 -7 0 -12 4 -12 8 0 5 7 9 15 9 8 0 15
-5 15 -11 0 -6 4 -5 9 2 12 20 18 19 35 -3 8 -11 18 -17 22 -12 4 4 2 7 -4 7
-7 0 -12 4 -12 9 0 12 82 10 99 -3 11 -8 13 -8 7 1 -4 7 -3 13 3 13 5 0 12 -8
14 -17 4 -15 5 -15 6 -2 1 20 81 23 81 3 0 -18 17 -27 26 -13 4 8 3 9 -4 5 -7
-4 -12 -1 -12 7 0 9 10 15 26 15 18 0 22 -3 13 -9 -8 -5 -9 -9 -3 -9 5 0 15 5
22 12 6 6 15 8 19 4 5 -4 -1 -14 -11 -22 -11 -8 -15 -14 -8 -14 6 0 17 8 24
19 9 13 25 18 51 18 20 -1 37 -4 37 -8 0 -4 7 -10 16 -13 13 -5 14 -4 6 7 -9
10 -8 14 3 14 8 0 15 -4 15 -8 0 -5 10 -13 23 -19 20 -10 20 -10 5 3 -22 17
-23 24 -3 24 8 0 16 -6 19 -14 3 -7 11 -13 18 -13 9 0 9 3 -2 10 -8 5 -11 12
-7 16 3 4 14 1 24 -7 11 -9 14 -10 9 -2 -4 7 -2 13 3 13 6 0 11 -4 11 -10 0
-5 5 -10 11 -10 5 0 8 4 5 8 -3 5 1 9 9 9 8 0 15 -4 15 -9 0 -4 5 -8 11 -8 5
0 8 4 5 9 -3 5 15 9 41 9 25 1 47 3 50 5 2 2 -11 18 -28 35 -17 17 -29 35 -25
40 3 5 -1 18 -10 28 -14 18 -14 18 -4 -5 10 -19 9 -22 -2 -19 -7 3 -15 15 -16
28 -3 18 -6 20 -13 9 -7 -11 -9 -10 -9 4 0 10 -4 15 -10 12 -14 -9 -12 8 3 24
10 11 8 11 -10 2 -19 -10 -23 -9 -23 3 0 8 -5 18 -12 22 -7 5 -9 2 -4 -7 4 -8
0 -5 -8 5 -9 11 -16 24 -16 30 0 5 -3 7 -6 4 -6 -7 -64 50 -64 63 0 5 -6 8
-12 6 -7 -1 -14 8 -16 20 -2 12 -10 24 -19 27 -14 6 -14 4 -2 -11 13 -16 12
-17 -3 -5 -10 8 -20 22 -23 33 -4 11 -10 17 -15 14 -5 -3 -17 8 -26 24 -10 17
-21 28 -26 25 -4 -3 -8 5 -8 18 0 18 -2 20 -10 8 -8 -13 -10 -12 -10 3 0 10
-4 16 -9 13 -5 -3 -12 5 -15 19 -4 14 -11 25 -17 25 -7 0 -6 -6 2 -18 13 -15
12 -16 -3 -4 -10 8 -20 22 -23 33 -4 11 -10 17 -15 14 -5 -3 -17 8 -26 24 -10
17 -21 28 -26 25 -4 -3 -8 5 -8 18 0 18 -2 20 -10 8 -8 -13 -10 -12 -10 3 0
10 -4 15 -10 12 -9 -6 -15 8 -11 29 1 5 -5 6 -14 2 -10 -4 -22 5 -35 27 -11
17 -20 29 -20 25 0 -4 -13 6 -30 24 -16 17 -30 35 -30 39 0 5 -5 8 -11 6 -6
-1 -14 4 -17 12 -2 8 0 11 5 8 5 -3 10 0 10 8 0 10 -5 11 -19 4 -14 -7 -18 -6
-18 6 0 9 -4 13 -10 10 -5 -3 -10 3 -10 13 0 11 -7 23 -16 26 -15 6 -15 4 -3
-11 13 -16 12 -17 -3 -4 -10 7 -18 20 -18 27 0 8 -7 14 -15 14 -8 0 -19 9 -25
19 -14 27 -13 31 8 25 14 -5 14 -4 2 4 -10 8 -18 8 -28 0 -10 -9 -12 -6 -8 16
3 15 1 24 -5 21 -5 -4 -7 -11 -4 -16 4 -5 3 -9 0 -9 -9 0 -65 63 -65 73 0 4
-5 5 -12 1 -8 -5 -9 -2 -5 10 5 14 3 17 -8 12 -9 -3 -15 0 -15 9 0 7 -5 17
-12 21 -7 5 -9 2 -4 -7 4 -8 1 -5 -8 5 -8 10 -13 23 -9 29 4 6 1 7 -6 3 -12
-8 -81 59 -81 77 0 5 -5 5 -12 1 -8 -5 -9 -2 -5 10 5 14 3 17 -8 12 -9 -3 -15
0 -15 10 0 8 -4 12 -10 9 -5 -3 -10 3 -10 13 0 11 -7 23 -16 26 -15 6 -15 4
-3 -11 12 -17 12 -17 -4 -2 -10 8 -19 26 -22 39 -2 13 -10 28 -16 34 -8 8 -8
4 1 -13 10 -19 9 -23 -2 -19 -7 3 -14 14 -16 26 -2 13 -8 19 -18 15 -17 -6
-19 13 -1 21 6 3 2 3 -9 1 -16 -4 -28 2 -43 21 -26 33 -27 45 -3 38 14 -5 14
-4 2 4 -10 8 -18 8 -28 0 -10 -9 -12 -6 -8 16 3 15 1 24 -5 21 -5 -4 -7 -11
-4 -16 4 -5 3 -9 0 -9 -9 0 -65 63 -65 73 0 4 -5 5 -12 1 -8 -5 -9 -2 -5 10 5
14 3 17 -8 12 -9 -3 -15 0 -15 10 0 8 -4 12 -10 9 -5 -3 -10 3 -10 13 0 11 -7
23 -16 26 -15 6 -15 4 -3 -11 12 -17 12 -17 -4 -2 -10 8 -19 25 -22 38 -5 26
-25 54 -33 46 -3 -3 -12 1 -21 8 -14 11 -15 10 -1 -8 14 -19 14 -19 -2 -6 -10
7 -18 19 -18 26 0 7 -7 16 -16 19 -8 3 -12 11 -9 17 4 6 0 9 -10 7 -10 -2 -20
4 -22 12 -4 13 -3 13 6 0 9 -13 11 -13 11 1 0 24 -11 30 -29 16 -14 -11 -14
-10 -2 5 7 10 17 15 22 12 5 -3 9 0 9 5 0 6 5 11 11 11 5 0 8 -4 4 -9 -3 -5 0
-13 6 -17 8 -4 7 -9 -2 -16 -11 -8 -11 -9 1 -5 8 2 14 11 12 19 -1 10 7 17 22
20 22 5 24 3 15 -21 -9 -25 -8 -25 6 -7 8 11 15 24 15 29 0 5 12 2 26 -8 15
-9 23 -12 20 -6 -5 7 1 11 14 11 14 0 20 -5 17 -13 -3 -8 3 -13 14 -13 12 0
15 4 9 10 -6 6 -10 12 -10 15 0 5 188 5 412 1 3 0 9 -8 11 -17 4 -17 5 -17 6
0 1 20 46 24 54 5 4 -10 6 -10 6 0 1 6 10 12 22 12 15 0 19 -5 15 -16 -3 -8
-2 -12 4 -9 6 3 10 12 10 18 0 7 16 12 39 12 22 0 37 -3 34 -7 -2 -5 1 -8 6
-8 6 0 11 5 11 11 0 7 11 4 26 -6 15 -9 23 -12 20 -6 -7 11 40 16 106 11 16
-1 30 6 37 17 9 16 12 16 21 3 9 -12 10 -9 4 10 -6 24 -6 24 13 7 16 -14 20
-14 20 -2 0 8 -5 11 -10 8 -6 -4 -8 1 -4 11 4 10 7 21 7 24 0 4 4 1 9 -7 7
-11 10 -9 16 8 7 24 74 90 90 90 6 0 1 -6 -9 -14 -11 -8 -15 -15 -9 -15 20 0
34 25 21 38 -9 9 -6 11 9 8 17 -4 20 0 17 17 -2 12 -2 16 2 10 4 -10 11 -9 29
3 13 9 30 12 37 8 10 -5 10 -4 2 5 -9 10 -17 10 -35 1 l-24 -13 24 26 c13 15
28 24 32 21 8 -5 13 10 10 29 -1 4 8 3 18 -3 14 -7 22 -7 26 0 4 6 3 10 -2 9
-24 -4 -24 4 2 31 21 22 31 27 37 18 5 -9 8 -5 8 11 0 16 4 21 14 18 10 -4 13
-1 10 7 -6 16 21 40 35 31 7 -3 8 0 5 9 -4 11 0 16 11 16 9 0 13 5 10 10 -3 6
1 10 10 10 10 0 13 -5 9 -12 -4 -7 -3 -8 5 -4 6 4 9 11 6 16 -7 12 5 40 17 40
6 0 4 -8 -3 -17 -13 -16 -12 -17 3 -5 9 8 14 20 11 28 -3 9 2 14 15 14 12 0
24 4 27 10 4 6 -1 7 -12 4 -11 -4 -6 4 12 20 17 14 35 24 41 21 7 -2 10 4 7
16 -4 14 -1 18 9 14 10 -4 17 1 21 15 3 13 10 19 17 15 6 -3 9 -1 8 6 -2 6 3
14 11 17 9 3 11 0 6 -8 -5 -9 -4 -11 4 -6 6 4 8 12 5 18 -4 6 1 17 11 25 11 7
14 13 7 13 -6 0 -10 14 -9 34 1 19 5 32 10 29 4 -2 7 1 7 6 0 6 -4 11 -9 11
-17 0 -8 55 10 68 11 7 19 18 19 24 0 7 -6 3 -14 -8 -8 -10 -18 -16 -22 -11
-4 4 -2 13 4 19 7 7 12 17 12 22 0 6 -4 5 -9 -3 -6 -9 -8 -5 -8 13 0 16 5 26
14 26 8 0 11 -5 7 -12 -4 -7 -3 -8 5 -4 14 9 5 26 -13 26 -20 0 -17 78 3 83
13 4 13 5 -1 6 -10 0 -18 6 -18 12 0 5 6 7 13 3 9 -6 9 -4 1 7 -13 17 -15 99
-3 99 5 0 9 -5 9 -12 0 -6 3 -8 7 -4 5 4 0 14 -10 21 -22 16 -23 25 -5 36 7 5
8 9 2 9 -6 0 -11 7 -11 15 0 8 4 15 9 15 4 0 8 -5 8 -12 0 -6 3 -8 7 -4 5 4 1
13 -7 19 -18 14 -25 47 -10 47 5 0 10 5 10 11 0 5 -4 8 -9 4 -5 -3 -9 8 -9 25
1 16 6 30 12 30 8 0 8 3 1 8 -15 10 -16 52 -2 52 7 0 6 4 -3 11 -11 8 -12 12
-2 16 6 2 12 9 12 14 0 6 -4 8 -9 5 -5 -3 -8 5 -8 18 0 17 4 23 13 19 8 -3 11
-10 7 -16 -4 -6 -1 -7 7 -2 11 7 9 12 -8 23 -25 16 -30 37 -7 29 8 -4 17 -1
21 5 4 7 3 8 -4 4 -7 -4 -12 -2 -12 4 0 6 -4 9 -8 6 -5 -3 -9 8 -10 24 0 17 4
30 9 30 5 0 9 5 9 11 0 5 -4 8 -9 4 -5 -3 -9 8 -9 25 1 16 6 30 12 30 8 0 8 3
1 8 -15 10 -16 52 -2 52 7 0 6 4 -3 11 -11 8 -12 12 -2 16 6 2 12 9 12 14 0 6
-4 8 -9 5 -5 -3 -8 5 -8 18 0 17 4 23 13 19 8 -3 11 -10 7 -16 -4 -6 -1 -7 7
-2 11 7 9 12 -8 23 -25 16 -30 37 -7 29 8 -4 17 -1 21 5 4 7 3 8 -4 4 -7 -4
-12 -2 -12 4 0 6 -4 8 -10 5 -5 -3 -10 -1 -10 4 0 6 6 11 13 11 8 0 9 2 1 8
-14 8 -16 62 -3 62 5 0 9 -5 9 -12 0 -6 3 -8 7 -4 5 4 1 13 -7 19 -16 13 -25
37 -14 37 4 0 13 -8 21 -17 13 -16 13 -16 3 5 -6 12 -14 22 -19 22 -4 0 -8 7
-8 15 0 11 4 12 14 3 11 -8 12 -7 7 6 -3 9 -9 16 -13 16 -16 0 -8 44 11 60 17
13 18 17 5 17 -9 0 -14 -4 -11 -9 3 -4 1 -8 -5 -8 -15 0 -10 42 8 65 15 18 15
19 -1 6 -16 -12 -18 -11 -18 8 0 11 -5 21 -11 21 -5 0 -7 5 -4 10 3 6 1 10 -6
10 -15 0 -105 90 -101 102 1 5 -1 7 -5 5 -5 -3 -17 1 -28 9 -19 14 -19 15 9
10 16 -3 25 -2 22 1 -4 4 -19 9 -34 10 -29 4 -55 30 -46 45 3 5 -2 8 -11 6
-10 -2 -20 3 -23 11 -3 8 0 11 7 7 6 -4 11 -2 11 4 0 7 -7 9 -16 6 -9 -3 -25
5 -41 20 -21 21 -23 28 -12 36 11 8 9 8 -5 4 -12 -4 -27 1 -43 15 -22 22 -32
46 -14 34 5 -3 12 -1 16 4 3 6 -4 8 -16 6 -14 -3 -34 6 -56 25 -18 17 -30 30
-26 30 4 0 -3 7 -15 16 -13 9 -21 22 -19 28 3 7 -1 13 -9 13 -7 0 -11 -4 -8
-9 10 -15 -1 -8 -19 13 -18 20 -18 21 2 14 12 -3 21 -3 21 2 0 5 -12 10 -27
11 -41 3 -86 50 -78 82 6 24 6 25 -10 5 -16 -20 -16 -20 -12 2 3 15 -2 27 -19
38 -20 13 -23 13 -18 0 4 -8 13 -15 21 -15 8 0 11 -5 7 -11 -4 -7 -20 3 -41
25 -20 20 -40 36 -45 36 -5 0 -7 4 -3 9 3 5 1 13 -5 16 -6 4 -9 1 -8 -6 2 -6
-3 -14 -11 -17 -9 -3 -11 0 -6 9 6 11 5 12 -6 2 -19 -18 -32 -16 -25 5 6 16 5
16 -8 0 -7 -10 -16 -18 -19 -18 -3 0 -8 8 -10 18 -4 16 -5 16 -6 0 0 -10 -6
-18 -12 -18 -5 0 -8 4 -5 8 3 5 -1 9 -9 9 -8 0 -12 -4 -9 -9 3 -4 1 -8 -5 -8
-5 0 -12 8 -14 18 -4 16 -5 16 -6 0 0 -10 -6 -18 -12 -18 -5 0 -7 6 -3 13 5 8
2 8 -9 -2 -14 -11 -20 -11 -34 0 -11 10 -14 10 -9 2 4 -7 3 -13 -3 -13 -5 0
-12 8 -14 18 -4 16 -5 16 -6 0 0 -10 -6 -18 -12 -18 -5 0 -8 4 -5 8 3 5 -1 9
-9 9 -8 0 -12 -4 -9 -9 3 -4 0 -8 -7 -8 -6 0 -9 8 -6 20 3 11 1 18 -4 14 -5
-3 -9 -12 -9 -20 0 -20 -18 -18 -23 4 -4 16 -5 16 -6 0 0 -10 -6 -18 -12 -18
-5 0 -8 4 -5 8 3 5 -1 9 -9 9 -8 0 -12 -4 -9 -9 3 -4 1 -8 -5 -8 -5 0 -12 8
-14 18 -4 16 -5 16 -6 0 0 -10 -6 -18 -12 -18 -5 0 -7 6 -3 13 5 8 2 8 -9 -2
-14 -11 -20 -11 -34 0 -11 10 -14 10 -9 2 4 -7 3 -13 -3 -13 -5 0 -12 8 -14
18 -4 16 -5 16 -6 0 0 -10 -6 -18 -12 -18 -5 0 -8 4 -5 8 3 5 -1 9 -9 9 -8 0
-12 -4 -9 -9 3 -4 0 -8 -7 -8 -6 0 -9 8 -6 20 3 11 1 18 -4 14 -5 -3 -9 -12
-9 -20 0 -20 -18 -18 -23 4 -4 16 -5 16 -6 0 0 -10 -6 -18 -12 -18 -5 0 -8 4
-5 8 3 5 -1 9 -9 9 -8 0 -12 -4 -9 -9 3 -4 1 -8 -5 -8 -5 0 -12 8 -14 18 -4
16 -5 16 -6 0 0 -10 -6 -18 -12 -18 -5 0 -7 6 -3 13 5 8 2 8 -9 -2 -14 -11
-20 -11 -34 0 -11 10 -14 10 -9 2 4 -7 3 -13 -3 -13 -5 0 -12 8 -14 18 -4 16
-5 16 -6 0 0 -10 -6 -18 -12 -18 -5 0 -8 4 -5 8 3 5 -1 9 -9 9 -8 0 -12 -4 -9
-9 3 -4 0 -8 -7 -8 -6 0 -9 8 -6 20 3 11 1 18 -4 14 -5 -3 -9 -12 -9 -20 0
-20 -18 -18 -23 4 -4 16 -5 16 -6 0 0 -10 -6 -18 -12 -18 -5 0 -8 4 -5 8 3 5
-1 9 -9 9 -8 0 -12 -4 -9 -9 3 -4 1 -8 -5 -8 -5 0 -12 8 -14 18 -4 16 -5 16
-6 0 0 -10 -6 -18 -12 -18 -5 0 -7 6 -3 13 5 8 2 8 -9 -2 -14 -11 -20 -11 -34
0 -11 10 -14 10 -9 2 4 -7 3 -13 -3 -13 -5 0 -12 8 -14 18 -4 16 -5 16 -6 0 0
-10 -6 -18 -12 -18 -5 0 -8 4 -5 8 3 5 -1 9 -9 9 -8 0 -12 -4 -9 -9 3 -4 0 -8
-7 -8 -6 0 -9 8 -6 20 3 11 1 18 -4 14 -5 -3 -9 -12 -9 -20 0 -20 -18 -18 -23
4 -4 16 -5 16 -6 0 0 -10 -6 -18 -12 -18 -5 0 -8 4 -5 8 3 5 -1 9 -9 9 -8 0
-12 -4 -9 -9 3 -4 1 -8 -5 -8 -5 0 -12 8 -14 18 -4 16 -5 16 -6 0 0 -10 -6
-18 -12 -18 -5 0 -7 6 -3 13 5 8 2 8 -9 -2 -14 -11 -20 -11 -34 0 -11 10 -14
10 -9 2 4 -7 3 -13 -3 -13 -5 0 -12 8 -14 18 -4 16 -5 16 -6 0 0 -10 -6 -18
-12 -18 -5 0 -8 4 -5 8 3 5 -1 9 -9 9 -8 0 -12 -4 -9 -9 3 -4 0 -8 -7 -8 -6 0
-9 8 -6 20 3 11 3 20 0 20 -3 0 -7 -9 -10 -20z m403 -3038 c-9 -8 -26 10 -26
26 1 15 2 15 15 -2 8 -11 13 -21 11 -24z"/>
<path d="M2580 5936 c0 -2 7 -7 16 -10 8 -3 12 -2 9 4 -6 10 -25 14 -25 6z"/>
<path d="M2740 5936 c0 -2 7 -7 16 -10 8 -3 12 -2 9 4 -6 10 -25 14 -25 6z"/>
<path d="M2900 5936 c0 -2 7 -7 16 -10 8 -3 12 -2 9 4 -6 10 -25 14 -25 6z"/>
<path d="M3060 5936 c0 -2 7 -7 16 -10 8 -3 12 -2 9 4 -6 10 -25 14 -25 6z"/>
<path d="M3380 5936 c0 -2 7 -7 16 -10 8 -3 12 -2 9 4 -6 10 -25 14 -25 6z"/>
<path d="M3835 5930 c-3 -5 -1 -10 4 -10 6 0 11 5 11 10 0 6 -2 10 -4 10 -3 0
-8 -4 -11 -10z"/>
<path d="M1936 5922 c-3 -5 1 -9 9 -9 8 0 12 4 9 9 -3 4 -7 8 -9 8 -2 0 -6 -4
-9 -8z"/>
<path d="M1875 5871 c-3 -5 -2 -12 3 -15 5 -3 9 1 9 9 0 17 -3 19 -12 6z"/>
<path d="M5330 5812 c0 -11 44 -52 54 -52 5 0 -3 9 -18 21 -14 11 -24 25 -21
30 4 5 1 9 -4 9 -6 0 -11 -4 -11 -8z"/>
<path d="M5455 5701 c-3 -5 -2 -12 3 -15 5 -3 9 1 9 9 0 17 -3 19 -12 6z"/>
<path d="M1710 5680 c-9 -6 -10 -10 -3 -10 6 0 15 5 18 10 8 12 4 12 -15 0z"/>
<path d="M5500 5648 c8 -8 20 -19 25 -26 8 -9 11 -7 11 8 0 10 -2 17 -4 15 -3
-2 -14 0 -26 6 -18 9 -19 8 -6 -3z"/>
<path d="M1630 5590 c-6 -11 -8 -20 -6 -20 3 0 10 9 16 20 6 11 8 20 6 20 -3
0 -10 -9 -16 -20z"/>
<path d="M5575 5580 c-3 -5 -1 -10 4 -10 6 0 11 5 11 10 0 6 -2 10 -4 10 -3 0
-8 -4 -11 -10z"/>
<path d="M1559 5553 c-13 -16 -12 -17 4 -4 9 7 17 15 17 17 0 8 -8 3 -21 -13z"/>
<path d="M1540 5518 c0 -4 4 -8 9 -8 6 0 12 4 15 8 3 5 -1 9 -9 9 -8 0 -15 -4
-15 -9z"/>
<path d="M5655 5521 c-3 -5 -2 -12 3 -15 5 -3 9 1 9 9 0 17 -3 19 -12 6z"/>
<path d="M1505 5479 c-4 -6 -5 -12 -2 -15 2 -3 7 2 10 11 7 17 1 20 -8 4z"/>
<path d="M5727 5433 c3 -7 6 -13 8 -13 2 0 5 6 8 13 3 8 -1 14 -8 14 -7 0 -11
-6 -8 -14z"/>
<path d="M1336 5318 c3 -4 12 -8 20 -8 8 0 14 4 14 8 0 4 -9 8 -19 8 -11 0
-17 -4 -15 -8z"/>
<path d="M1330 5289 c0 -5 5 -7 10 -4 6 3 10 8 10 11 0 2 -4 4 -10 4 -5 0 -10
-5 -10 -11z"/>
<path d="M1255 5180 c3 -5 8 -10 11 -10 2 0 4 5 4 10 0 6 -5 10 -11 10 -5 0
-7 -4 -4 -10z"/>
<path d="M5926 5117 c3 -10 9 -15 12 -12 3 3 0 11 -7 18 -10 9 -11 8 -5 -6z"/>
<path d="M5920 4960 c0 -5 5 -10 11 -10 5 0 7 5 4 10 -3 6 -8 10 -11 10 -2 0
-4 -4 -4 -10z"/>
<path d="M2380 4931 c0 -6 4 -13 10 -16 6 -3 7 1 4 9 -7 18 -14 21 -14 7z"/>
<path d="M2530 4931 c0 -6 4 -13 10 -16 6 -3 7 1 4 9 -7 18 -14 21 -14 7z"/>
<path d="M3090 4931 c0 -6 4 -13 10 -16 6 -3 7 1 4 9 -7 18 -14 21 -14 7z"/>
<path d="M3330 4931 c0 -6 4 -13 10 -16 6 -3 7 1 4 9 -7 18 -14 21 -14 7z"/>
<path d="M4050 4931 c0 -6 4 -13 10 -16 6 -3 7 1 4 9 -7 18 -14 21 -14 7z"/>
<path d="M4290 4931 c0 -6 4 -13 10 -16 6 -3 7 1 4 9 -7 18 -14 21 -14 7z"/>
<path d="M2337 4917 c-3 -8 3 -14 16 -15 12 0 17 2 12 6 -6 4 -13 11 -16 15
-4 4 -9 2 -12 -6z"/>
<path d="M2420 4922 c0 -5 7 -9 15 -9 8 0 15 4 15 9 0 4 -7 8 -15 8 -8 0 -15
-4 -15 -8z"/>
<path d="M4900 4899 c-13 -9 -13 -10 2 -6 23 8 30 -3 15 -22 -11 -14 -10 -14
6 -2 13 10 15 17 6 27 -14 16 -10 16 -29 3z"/>
<path d="M2359 4873 c-13 -16 -12 -17 4 -4 16 13 21 21 13 21 -2 0 -10 -8 -17
-17z"/>
<path d="M2334 4779 c-3 -6 -1 -16 5 -22 9 -9 10 -7 5 8 -7 18 -6 19 12 5 18
-14 18 -14 5 3 -16 20 -18 20 -27 6z"/>
<path d="M5928 4703 c6 -2 9 -10 6 -15 -4 -7 -2 -8 5 -4 13 9 5 26 -12 25 -9
0 -8 -2 1 -6z"/>
<path d="M2330 4640 c0 -5 5 -10 11 -10 5 0 7 5 4 10 -3 6 -8 10 -11 10 -2 0
-4 -4 -4 -10z"/>
<path d="M5930 4640 c-9 -6 -10 -10 -3 -10 6 0 15 5 18 10 8 12 4 12 -15 0z"/>
<path d="M4907 4559 c7 -9 10 -19 6 -22 -3 -4 -1 -7 5 -7 17 0 15 16 -5 31
-16 12 -17 12 -6 -2z"/>
<path d="M2327 4439 c7 -7 15 -10 18 -7 3 3 -2 9 -12 12 -14 6 -15 5 -6 -5z"/>
<path d="M5928 4383 c6 -2 9 -10 6 -15 -4 -7 -2 -8 5 -4 13 9 5 26 -12 25 -9
0 -8 -2 1 -6z"/>
<path d="M5935 4319 c-4 -6 -5 -12 -2 -15 2 -3 7 2 10 11 7 17 1 20 -8 4z"/>
<path d="M4907 4239 c7 -9 10 -19 6 -22 -3 -4 -1 -7 5 -7 17 0 15 16 -5 31
-16 12 -17 12 -6 -2z"/>
<path d="M5941 4236 c-9 -11 -9 -16 1 -22 7 -4 10 -4 6 1 -4 4 -3 14 3 22 6 7
9 13 6 13 -2 0 -10 -6 -16 -14z"/>
<path d="M2325 4220 c3 -5 8 -10 11 -10 2 0 4 5 4 10 0 6 -5 10 -11 10 -5 0
-7 -4 -4 -10z"/>
<path d="M5921 4154 c0 -11 3 -14 6 -6 3 7 2 16 -1 19 -3 4 -6 -2 -5 -13z"/>
<path d="M5926 4122 c-3 -5 1 -9 9 -9 8 0 12 4 9 9 -3 4 -7 8 -9 8 -2 0 -6 -4
-9 -8z"/>
<path d="M4469 4063 c-13 -16 -12 -17 4 -4 16 13 21 21 13 21 -2 0 -10 -8 -17
-17z"/>
<path d="M3986 4062 c-3 -5 1 -9 9 -9 8 0 12 4 9 9 -3 4 -7 8 -9 8 -2 0 -6 -4
-9 -8z"/>
<path d="M4146 4062 c-3 -5 1 -9 9 -9 8 0 12 4 9 9 -3 4 -7 8 -9 8 -2 0 -6 -4
-9 -8z"/>
<path d="M4306 4062 c-3 -5 1 -9 9 -9 8 0 12 4 9 9 -3 4 -7 8 -9 8 -2 0 -6 -4
-9 -8z"/>
<path d="M4879 4068 c-7 -23 -4 -35 7 -35 9 0 11 4 4 12 -5 7 -7 15 -3 18 3 4
3 7 0 7 -4 0 -7 -1 -8 -2z"/>
<path d="M3660 4053 c0 -19 21 -27 33 -13 9 10 9 11 -2 5 -8 -4 -17 -2 -22 6
-6 9 -9 10 -9 2z"/>
<path d="M3893 4047 c0 -19 34 -18 49 1 12 15 11 16 -4 3 -13 -10 -21 -11 -31
-2 -10 8 -14 7 -14 -2z"/>
<path d="M4053 4047 c0 -19 34 -18 49 1 12 15 11 16 -4 3 -13 -10 -21 -11 -31
-2 -10 8 -14 7 -14 -2z"/>
<path d="M4213 4047 c0 -19 34 -18 49 1 12 15 11 16 -4 3 -13 -10 -21 -11 -31
-2 -10 8 -14 7 -14 -2z"/>
<path d="M4373 4047 c0 -19 34 -18 49 1 12 15 11 16 -4 3 -13 -10 -21 -11 -31
-2 -10 8 -14 7 -14 -2z"/>
<path d="M3860 4040 c-9 -6 -10 -10 -3 -10 6 0 15 5 18 10 8 12 4 12 -15 0z"/>
<path d="M4495 4040 c3 -5 8 -10 11 -10 2 0 4 5 4 10 0 6 -5 10 -11 10 -5 0
-7 -4 -4 -10z"/>
<path d="M4836 4038 c3 -5 10 -6 15 -3 13 9 11 12 -6 12 -8 0 -12 -4 -9 -9z"/>
<path d="M5921 4033 c-1 -17 16 -25 25 -12 4 7 3 9 -4 5 -5 -3 -13 0 -15 6 -4
9 -6 10 -6 1z"/>
<path d="M2327 3959 c7 -7 15 -10 18 -7 3 3 -2 9 -12 12 -14 6 -15 5 -6 -5z"/>
<path d="M3492 3945 c4 -4 3 -16 -3 -26 -5 -11 -7 -19 -5 -19 3 0 10 9 16 19
7 15 7 22 -2 27 -7 4 -10 4 -6 -1z"/>
<path d="M1254 3899 c-4 -7 -3 -9 4 -5 5 3 13 0 15 -6 4 -9 6 -10 6 -1 1 17
-16 25 -25 12z"/>
<path d="M5928 3863 c6 -2 9 -10 6 -15 -4 -7 -2 -8 5 -4 13 9 5 26 -12 25 -9
0 -8 -2 1 -6z"/>
<path d="M1266 3837 c3 -10 9 -15 12 -12 3 3 0 11 -7 18 -10 9 -11 8 -5 -6z"/>
<path d="M3405 3799 c-3 -4 2 -6 10 -5 21 3 28 13 10 13 -9 0 -18 -4 -20 -8z"/>
<path d="M3395 3770 c-3 -6 1 -7 9 -4 18 7 21 14 7 14 -6 0 -13 -4 -16 -10z"/>
<path d="M3355 3700 c-3 -5 -1 -10 4 -10 6 0 11 5 11 10 0 6 -2 10 -4 10 -3 0
-8 -4 -11 -10z"/>
<path d="M3355 3669 c-4 -6 -5 -12 -2 -15 2 -3 7 2 10 11 7 17 1 20 -8 4z"/>
<path d="M2325 3640 c-3 -5 -2 -10 4 -10 5 0 13 5 16 10 3 6 2 10 -4 10 -5 0
-13 -4 -16 -10z"/>
<path d="M3316 3638 c3 -4 9 -8 15 -8 5 0 9 4 9 8 0 5 -7 9 -15 9 -8 0 -12 -4
-9 -9z"/>
<path d="M5795 3600 c-3 -5 -2 -10 4 -10 5 0 13 5 16 10 3 6 2 10 -4 10 -5 0
-13 -4 -16 -10z"/>
<path d="M3270 3538 c0 -4 4 -8 9 -8 6 0 12 4 15 8 3 5 -1 9 -9 9 -8 0 -15 -4
-15 -9z"/>
<path d="M3250 3500 c0 -5 5 -10 11 -10 5 0 7 5 4 10 -3 6 -8 10 -11 10 -2 0
-4 -4 -4 -10z"/>
<path d="M3216 3455 c-9 -26 -7 -32 5 -12 6 10 9 21 6 23 -2 3 -7 -2 -11 -11z"/>
<path d="M5633 3415 c0 -8 4 -12 9 -9 5 3 6 10 3 15 -9 13 -12 11 -12 -6z"/>
<path d="M3175 3400 c-3 -5 -1 -10 4 -10 6 0 11 5 11 10 0 6 -2 10 -4 10 -3 0
-8 -4 -11 -10z"/>
<path d="M5550 3375 c-11 -13 -10 -14 4 -9 9 3 16 10 16 15 0 13 -6 11 -20 -6z"/>
<path d="M2325 3260 c3 -5 8 -10 11 -10 2 0 4 5 4 10 0 6 -5 10 -11 10 -5 0
-7 -4 -4 -10z"/>
<path d="M3113 3245 c0 -8 4 -15 9 -15 4 0 8 4 8 9 0 6 -4 12 -8 15 -5 3 -9
-1 -9 -9z"/>
<path d="M1260 3171 c0 -6 4 -13 10 -16 6 -3 7 1 4 9 -7 18 -14 21 -14 7z"/>
<path d="M5346 3164 c-5 -14 -4 -15 9 -4 17 14 19 20 6 20 -5 0 -12 -7 -15
-16z"/>
<path d="M4451 3034 c0 -11 3 -14 6 -6 3 7 2 16 -1 19 -3 4 -6 -2 -5 -13z"/>
<path d="M4990 3040 c0 -5 5 -10 11 -10 5 0 7 5 4 10 -3 6 -8 10 -11 10 -2 0
-4 -4 -4 -10z"/>
<path d="M5159 3048 c-5 -18 -6 -38 -1 -34 7 8 12 36 6 36 -2 0 -4 -1 -5 -2z"/>
<path d="M5053 3025 c0 -8 4 -12 9 -9 5 3 6 10 3 15 -9 13 -12 11 -12 -6z"/>
<path d="M1260 3011 c0 -6 4 -13 10 -16 6 -3 7 1 4 9 -7 18 -14 21 -14 7z"/>
<path d="M2976 3005 c-3 -8 -1 -15 4 -15 6 0 10 7 10 15 0 8 -2 15 -4 15 -2 0
-6 -7 -10 -15z"/>
<path d="M2327 2999 c7 -7 15 -10 18 -7 3 3 -2 9 -12 12 -14 6 -15 5 -6 -5z"/>
<path d="M4260 2986 c0 -2 7 -6 15 -10 8 -3 15 -1 15 4 0 6 -7 10 -15 10 -8 0
-15 -2 -15 -4z"/>
<path d="M2933 2965 c0 -8 4 -12 9 -9 5 3 6 10 3 15 -9 13 -12 11 -12 -6z"/>
<path d="M2340 2866 c0 -2 8 -10 18 -17 15 -13 16 -12 3 4 -13 16 -21 21 -21
13z"/>
<path d="M1260 2851 c0 -6 4 -13 10 -16 6 -3 7 1 4 9 -7 18 -14 21 -14 7z"/>
<path d="M2990 2833 c0 -6 7 -14 16 -17 8 -3 12 -11 8 -17 -4 -7 -3 -9 3 -6
11 7 47 -26 38 -35 -3 -2 2 -5 10 -5 8 0 15 1 15 2 0 0 -20 21 -45 45 -25 24
-45 39 -45 33z"/>
<path d="M4467 2779 c7 -7 15 -10 18 -7 3 3 -2 9 -12 12 -14 6 -15 5 -6 -5z"/>
<path d="M4480 2756 c0 -2 7 -7 16 -10 8 -3 12 -2 9 4 -6 10 -25 14 -25 6z"/>
<path d="M2330 2720 c0 -5 5 -10 11 -10 5 0 7 5 4 10 -3 6 -8 10 -11 10 -2 0
-4 -4 -4 -10z"/>
<path d="M1260 2691 c0 -6 4 -13 10 -16 6 -3 7 1 4 9 -7 18 -14 21 -14 7z"/>
<path d="M2325 2680 c-3 -5 -2 -10 4 -10 5 0 13 5 16 10 3 6 2 10 -4 10 -5 0
-13 -4 -16 -10z"/>
<path d="M4587 2679 c7 -7 15 -10 18 -7 3 3 -2 9 -12 12 -14 6 -15 5 -6 -5z"/>
<path d="M4560 2666 c0 -2 7 -9 15 -16 13 -11 14 -10 9 4 -5 14 -24 23 -24 12z"/>
<path d="M3156 2639 c3 -5 10 -6 16 -3 8 5 9 1 5 -10 -4 -11 -3 -15 4 -11 14
10 6 28 -14 31 -9 1 -15 -2 -11 -7z"/>
<path d="M3212 2610 c7 -11 17 -20 22 -20 5 0 1 9 -9 20 -10 11 -20 20 -22 20
-2 0 2 -9 9 -20z"/>
<path d="M1260 2531 c0 -6 4 -13 10 -16 6 -3 7 1 4 9 -7 18 -14 21 -14 7z"/>
<path d="M2327 2519 c7 -7 15 -10 18 -7 3 3 -2 9 -12 12 -14 6 -15 5 -6 -5z"/>
<path d="M3369 2457 c6 -8 9 -16 6 -19 -3 -2 2 -5 10 -5 13 0 13 3 -2 19 -19
21 -31 25 -14 5z"/>
<path d="M4827 2409 c4 -13 8 -18 11 -10 2 7 -1 18 -6 23 -8 8 -9 4 -5 -13z"/>
<path d="M2325 2300 c3 -5 8 -10 11 -10 2 0 4 5 4 10 0 6 -5 10 -11 10 -5 0
-7 -4 -4 -10z"/>
<path d="M3523 2299 c9 -6 15 -14 13 -18 -3 -4 1 -8 9 -8 13 0 12 4 -2 19 -9
10 -21 18 -27 18 -6 0 -3 -5 7 -11z"/>
<path d="M4947 2299 c7 -7 15 -10 18 -7 3 3 -2 9 -12 12 -14 6 -15 5 -6 -5z"/>
<path d="M4960 2276 c0 -2 7 -7 16 -10 8 -3 12 -2 9 4 -6 10 -25 14 -25 6z"/>
<path d="M3575 2230 c-3 -6 1 -7 9 -4 18 7 21 14 7 14 -6 0 -13 -4 -16 -10z"/>
<path d="M1260 2211 c0 -6 4 -13 10 -16 6 -3 7 1 4 9 -7 18 -14 21 -14 7z"/>
<path d="M3600 2213 c8 -3 22 -11 30 -17 13 -10 13 -9 1 7 -7 9 -21 17 -30 16
-13 0 -14 -1 -1 -6z"/>
<path d="M5050 2195 c-11 -13 -10 -14 4 -9 9 3 16 10 16 15 0 13 -6 11 -20 -6z"/>
<path d="M3696 2125 c4 -8 11 -15 16 -15 6 0 5 6 -2 15 -7 8 -14 15 -16 15 -2
0 -1 -7 2 -15z"/>
<path d="M3715 2089 c-4 -6 -5 -12 -2 -15 2 -3 7 2 10 11 7 17 1 20 -8 4z"/>
<path d="M2334 2059 c-3 -6 -1 -16 5 -22 9 -9 10 -7 5 8 -7 18 -6 19 12 5 18
-14 18 -14 5 3 -16 20 -18 20 -27 6z"/>
<path d="M5190 2060 c0 -5 5 -10 11 -10 5 0 7 5 4 10 -3 6 -8 10 -11 10 -2 0
-4 -4 -4 -10z"/>
<path d="M5273 1972 c0 -12 5 -22 9 -22 11 0 10 12 -2 30 -7 12 -9 10 -7 -8z"/>
<path d="M3873 1945 c0 -8 3 -13 5 -10 3 3 12 -1 21 -7 10 -8 9 -4 -3 10 -23
26 -23 26 -23 7z"/>
<path d="M2330 1920 c0 -5 5 -10 11 -10 5 0 7 5 4 10 -3 6 -8 10 -11 10 -2 0
-4 -4 -4 -10z"/>
<path d="M5350 1920 c0 -5 5 -10 11 -10 5 0 7 5 4 10 -3 6 -8 10 -11 10 -2 0
-4 -4 -4 -10z"/>
<path d="M2326 1882 c-3 -5 1 -9 9 -9 8 0 15 4 15 9 0 4 -4 8 -9 8 -6 0 -12
-4 -15 -8z"/>
<path d="M5430 1822 c0 -5 7 -9 15 -9 8 0 12 4 9 9 -3 4 -9 8 -15 8 -5 0 -9
-4 -9 -8z"/>
<path d="M4000 1800 c-9 -6 -10 -10 -3 -10 6 0 15 5 18 10 8 12 4 12 -15 0z"/>
<path d="M4030 1792 c0 -4 10 -13 23 -21 22 -14 22 -14 3 8 -20 22 -26 25 -26
13z"/>
<path d="M4070 1743 c5 -2 8 -9 5 -13 -3 -5 -1 -11 4 -14 5 -4 8 2 7 11 -2 9
-8 18 -15 19 -6 1 -7 0 -1 -3z"/>
<path d="M4190 1630 c0 -5 5 -10 11 -10 5 0 7 5 4 10 -3 6 -8 10 -11 10 -2 0
-4 -4 -4 -10z"/>
<path d="M5670 1585 c0 -5 5 -17 10 -25 5 -8 10 -10 10 -5 0 6 -5 17 -10 25
-5 8 -10 11 -10 5z"/>
<path d="M2325 1560 c-3 -5 -2 -10 4 -10 5 0 13 5 16 10 3 6 2 10 -4 10 -5 0
-13 -4 -16 -10z"/>
<path d="M4283 1544 c9 -11 14 -24 10 -29 -5 -4 -2 -4 6 0 11 6 13 4 7 -11 -6
-15 -5 -17 6 -6 10 10 7 18 -17 40 -16 15 -22 18 -12 6z"/>
<path d="M1260 1465 c-7 -9 -8 -15 -2 -15 5 0 12 7 16 15 3 8 4 15 2 15 -2 0
-9 -7 -16 -15z"/>
<path d="M4353 1466 c0 -8 5 -14 11 -13 6 1 10 -4 8 -11 -1 -8 2 -11 8 -7 8 5
6 13 -6 26 -21 23 -21 23 -21 5z"/>
<path d="M4446 1358 c3 -5 10 -6 15 -3 13 9 11 12 -6 12 -8 0 -12 -4 -9 -9z"/>
<path d="M1256 1322 c-3 -5 1 -9 9 -9 8 0 12 4 9 9 -3 4 -7 8 -9 8 -2 0 -6 -4
-9 -8z"/>
<path d="M1771 1273 c-1 -17 16 -25 25 -12 4 7 3 9 -4 5 -5 -3 -13 0 -15 6 -4
9 -6 10 -6 1z"/>
<path d="M1915 1270 c-3 -5 -1 -10 4 -10 6 0 11 5 11 10 0 6 -2 10 -4 10 -3 0
-8 -4 -11 -10z"/>
<path d="M2171 1273 c-1 -17 16 -25 25 -12 4 7 3 9 -4 5 -5 -3 -13 0 -15 6 -4
9 -6 10 -6 1z"/>
<path d="M4675 1271 c-3 -5 -2 -12 3 -15 5 -3 9 1 9 9 0 17 -3 19 -12 6z"/>
<path d="M4768 1273 c6 -2 9 -10 6 -15 -4 -7 -2 -8 5 -4 13 9 5 26 -12 25 -9
0 -8 -2 1 -6z"/>
<path d="M5117 1269 c7 -7 15 -10 18 -7 3 3 -2 9 -12 12 -14 6 -15 5 -6 -5z"/>
<path d="M5278 1273 c7 -3 16 -2 19 1 4 3 -2 6 -13 5 -11 0 -14 -3 -6 -6z"/>
<path d="M5315 1271 c-3 -5 -2 -12 3 -15 5 -3 9 1 9 9 0 17 -3 19 -12 6z"/>
<path d="M5408 1273 c6 -2 9 -10 6 -15 -4 -7 -2 -8 5 -4 13 9 5 26 -12 25 -9
0 -8 -2 1 -6z"/>
<path d="M2235 1260 c-3 -6 1 -7 9 -4 18 7 21 14 7 14 -6 0 -13 -4 -16 -10z"/>
<path d="M4600 1260 c-9 -6 -10 -10 -3 -10 6 0 15 5 18 10 8 12 4 12 -15 0z"/>
<path d="M4958 1263 c7 -3 16 -2 19 1 4 3 -2 6 -13 5 -11 0 -14 -3 -6 -6z"/>
<path d="M5039 1253 c-12 -16 -12 -17 2 -6 9 7 20 9 24 5 5 -4 5 -1 1 6 -9 16
-11 15 -27 -5z"/>
<path d="M5199 1253 c-12 -16 -12 -17 2 -6 9 7 20 9 24 5 5 -4 5 -1 1 6 -9 16
-11 15 -27 -5z"/>
<path d="M5598 1263 c7 -3 16 -2 19 1 4 3 -2 6 -13 5 -11 0 -14 -3 -6 -6z"/>
</g>
</svg>
